<svg width="32" height="32" viewBox="0 0 32 32" fill="none" xmlns="http://www.w3.org/2000/svg">
<path d="M16.1596 17.1545C16.2176 16.1206 16.7239 15.2096 17.4878 14.5639C18.2369 13.9296 19.2451 13.542 20.3452 13.542C21.4443 13.542 22.4525 13.9296 23.2022 14.5639C23.9655 15.2096 24.4718 16.1206 24.5303 17.1534C24.5882 18.2158 24.1612 19.2027 23.4121 19.9343C22.6483 20.6785 21.5618 21.1454 20.3452 21.1454C19.1286 21.1454 18.04 20.6785 17.2767 19.9343C16.5271 19.2027 16.1011 18.2158 16.1596 17.1545Z" fill="white"/>
<path d="M9.49505 19.248C9.50216 19.6526 9.6312 20.4389 9.82476 21.0529C10.2316 22.3526 10.9216 23.555 11.8817 24.6146C12.867 25.7038 14.0804 26.5786 15.4818 27.1998C16.9548 27.8521 18.5508 28.1845 20.2087 28.1818C21.8638 28.1796 23.4598 27.8406 24.9329 27.1834C26.3342 26.5562 27.5464 25.6776 28.5301 24.5878C29.4897 23.5238 30.1787 22.3193 30.5866 21.0196C30.7916 20.3629 30.9212 19.6964 30.9731 19.0277C31.024 18.3688 31.0027 17.7089 30.9092 17.0495C30.7265 15.7645 30.282 14.5589 29.5974 13.4599C28.9714 12.45 28.1643 11.5659 27.2047 10.8217L27.2069 10.8201L17.5229 3.38451C17.5141 3.37795 17.507 3.37085 17.4977 3.36483C16.8624 2.87711 15.794 2.87876 15.0952 3.36757C14.3887 3.86185 14.3078 4.67927 14.9366 5.19488L14.9339 5.19761L18.9729 8.48209L6.66219 8.4952H6.64578C5.62822 8.4963 4.65004 9.1639 4.45648 10.0076C4.25745 10.8671 4.94857 11.5801 6.00659 11.5839L6.00496 11.5878L12.2448 11.5757L1.11018 20.1223C1.09596 20.1327 1.08065 20.1437 1.06752 20.154C0.0171601 20.9584 -0.322383 22.2958 0.339222 23.1422C1.01067 24.0028 2.43831 24.0044 3.49961 23.1471L9.57652 18.1736C9.57652 18.1736 9.48795 18.8451 9.49505 19.248ZM25.1105 21.4964C23.8584 22.772 22.1054 23.4954 20.2087 23.4992C18.3091 23.5025 16.5562 22.7857 15.304 21.5122C14.6922 20.8916 14.2427 20.1776 13.9655 19.417C13.6938 18.6696 13.5882 17.8762 13.6582 17.0757C13.7244 16.2933 13.9573 15.5469 14.3291 14.8717C14.6944 14.2079 15.1974 13.6081 15.8186 13.1007C17.0357 12.1088 18.5853 11.5719 20.2059 11.5697C21.8282 11.5675 23.3767 12.0995 24.5949 13.0881C25.215 13.5933 25.7175 14.1909 26.0827 14.8536C26.4562 15.5283 26.6875 16.272 26.7564 17.0566C26.8253 17.856 26.7197 18.6482 26.448 19.3962C26.1702 20.159 25.7224 20.873 25.1105 21.4964Z" fill="white"/>
</svg>
