<svg width="12" height="12" viewBox="0 0 12 12" fill="none" xmlns="http://www.w3.org/2000/svg">
<rect width="12" height="12" fill="#ED6A5E"/>
<path fill-rule="evenodd" clip-rule="evenodd" d="M3.20711 4.20711C3.0745 4.0745 3 3.89464 3 3.70711C3 3.31658 3.31658 3 3.70711 3C3.89464 3 4.0745 3.0745 4.20711 3.20711L6 5L7.79289 3.20711C7.9255 3.0745 8.10536 3 8.29289 3C8.68342 3 9 3.31658 9 3.70711C9 3.89464 8.9255 4.0745 8.79289 4.20711L7 6L8.79289 7.79289C8.9255 7.9255 9 8.10536 9 8.29289C9 8.68342 8.68342 9 8.29289 9C8.10536 9 7.9255 8.9255 7.79289 8.79289L6 7L4.20711 8.79289C4.0745 8.9255 3.89464 9 3.70711 9C3.31658 9 3 8.68342 3 8.29289C3 8.10536 3.0745 7.9255 3.20711 7.79289L5 6L3.20711 4.20711Z" fill="#6B120B"/>
</svg>
